# xmcd CD database file
#
# Track frame offsets:
#	150
#	21307
#	36482
#	54145
#	70352
#	86555
#	99400
#	111587
#	122810
#	140165
#
# Disc length: 2092 seconds
#
# Revision: 3
# Processed by: cddbd v1.5.2PL0 Copyright (c) Steve Scherf et al.
# Submitted via: CDex 1.70beta2
#
DISCID=92082a0a
DTITLE=Clint Black - The Hard Way
DYEAR=1992
DGENRE=Country
TTITLE0=We Tell Ourselves
TTITLE1=The Hard Way
TTITLE2=Something To Cry About
TTITLE3=Buying Time
TTITLE4=When My Ship Comes In
TTITLE5=A Woman Has Her Way
TTITLE6=There Never Was A Train
TTITLE7=The Good Old Days
TTITLE8=Burn One Down
TTITLE9=Wake Up Yesterday
EXTD=YEAR: 1992
EXTT0=
EXTT1=
EXTT2=
EXTT3=
EXTT4=
EXTT5=
EXTT6=
EXTT7=
EXTT8=
EXTT9=
PLAYORDER=
